HIERARCHY
ROOT Hips
{
	OFFSET 0.000000 0.000000 0.000000
	CHANNELS 6 Xposition Yposition Zposition Xrotation Yrotation Zrotation
	JOINT LeftUpLeg_virtual
	{
		OFFSET 0.000000 0.000000 0.000000
		CHANNELS 3 Xrotation Yrotation Zrotation
		JOINT LeftUpLeg
		{
			OFFSET 11.394100 -6.187798 -0.413800
			CHANNELS 3 Xrotation Yrotation Zrotation
			JOINT LeftLeg
			{
				OFFSET 0.430247 -32.302673 3.732800
				CHANNELS 3 Xrotation Yrotation Zrotation
				JOINT LeftFoot
				{
					OFFSET -0.430247 -48.264931 -6.423300
					CHANNELS 3 Xrotation Yrotation Zrotation
					JOINT LeftToeBase
					{
						OFFSET 4.230900 -16.068199 23.438400
						CHANNELS 3 Xrotation Yrotation Zrotation
						JOINT LeftToe_End
						{
							OFFSET 4.510700 0.695400 19.974600
							CHANNELS 3 Xrotation Yrotation Zrotation
							End Site
							{
								OFFSET 0 0 0
							}
						}
					}
				}
			}
		}
	}
	JOINT RightUpLeg_virtual
	{
		OFFSET 0.000000 0.000000 0.000000
		CHANNELS 3 Xrotation Yrotation Zrotation
		JOINT RightUpLeg
		{
			OFFSET -11.333700 -6.187798 -0.413800
			CHANNELS 3 Xrotation Yrotation Zrotation
			JOINT RightLeg
			{
				OFFSET -0.430392 -32.302628 3.733000
				CHANNELS 3 Xrotation Yrotation Zrotation
				JOINT RightFoot
				{
					OFFSET 0.430392 -48.264973 -6.423500
					CHANNELS 3 Xrotation Yrotation Zrotation
					JOINT RightToeBase
					{
						OFFSET -4.230900 -16.068199 23.438400
						CHANNELS 3 Xrotation Yrotation Zrotation
						JOINT RightToe_End
						{
							OFFSET -4.510700 0.695400 19.974600
							CHANNELS 3 Xrotation Yrotation Zrotation
							End Site
							{
								OFFSET 0 0 0
							}
						}
					}
				}
			}
		}
	}
	JOINT Spine_virtual
	{
		OFFSET 0.000000 0.000000 0.000000
		CHANNELS 3 Xrotation Yrotation Zrotation
		JOINT Spine
		{
			OFFSET -0.002400 12.777504 0.315300
			CHANNELS 3 Xrotation Yrotation Zrotation
			JOINT Spine1
			{
				OFFSET -0.002067 5.816869 0.032633
				CHANNELS 3 Xrotation Yrotation Zrotation
				JOINT Spine1_split
				{
					OFFSET -0.002067 5.816869 0.032633
					CHANNELS 3 Xrotation Yrotation Zrotation
					JOINT Spine2
					{
						OFFSET -0.002067 5.816869 0.032633
						CHANNELS 3 Xrotation Yrotation Zrotation
						JOINT Neck_virtual
						{
							OFFSET 0.000000 0.000000 0.000000
							CHANNELS 3 Xrotation Yrotation Zrotation
							JOINT Neck
							{
								OFFSET -0.003700 21.199493 -0.826900
								CHANNELS 3 Xrotation Yrotation Zrotation
								JOINT Head
								{
									OFFSET 0.000000 20.442200 4.834800
									CHANNELS 3 Xrotation Yrotation Zrotation
									JOINT HeadTop_End
									{
										OFFSET 0.000000 34.668396 4.968400
										CHANNELS 3 Xrotation Yrotation Zrotation
										End Site
										{
											OFFSET 0 0 0
										}
									}
								}
							}
						}
						JOINT LeftShoulder_virtual
						{
							OFFSET 0.000000 0.000000 0.000000
							CHANNELS 3 Xrotation Yrotation Zrotation
							JOINT LeftShoulder
							{
								OFFSET 3.288150 8.794197 -1.372250
								CHANNELS 3 Xrotation Yrotation Zrotation
								JOINT LeftShoulder_split
								{
									OFFSET 3.288150 8.794197 -1.372250
									CHANNELS 3 Xrotation Yrotation Zrotation
									JOINT LeftArm
									{
										OFFSET 11.953299 -2.279007 -0.146200
										CHANNELS 3 Xrotation Yrotation Zrotation
										JOINT LeftForeArm
										{
											OFFSET 18.448900 0.000000 0.000000
											CHANNELS 3 Xrotation Yrotation Zrotation
											JOINT LeftHand
											{
												OFFSET 29.527798 0.000000 0.000000
												CHANNELS 3 Xrotation Yrotation Zrotation
												End Site
												{
													OFFSET 0 0 0
												}
											}
										}
									}
								}
							}
						}
						JOINT RightShoulder_virtual
						{
							OFFSET 0.000000 0.000000 0.000000
							CHANNELS 3 Xrotation Yrotation Zrotation
							JOINT RightShoulder
							{
								OFFSET -3.249400 8.794197 -1.372250
								CHANNELS 3 Xrotation Yrotation Zrotation
								JOINT RightShoulder_split
								{
									OFFSET -3.249400 8.794197 -1.372250
									CHANNELS 3 Xrotation Yrotation Zrotation
									JOINT RightArm
									{
										OFFSET -11.953299 -2.279007 -0.146200
										CHANNELS 3 Xrotation Yrotation Zrotation
										JOINT RightForeArm
										{
											OFFSET -18.448900 0.000000 0.000000
											CHANNELS 3 Xrotation Yrotation Zrotation
											JOINT RightHand
											{
												OFFSET -29.527802 0.000000 0.000000
												CHANNELS 3 Xrotation Yrotation Zrotation
												End Site
												{
													OFFSET 0 0 0
												}
											}
										}
									}
								}
							}
						}
					}
				}
			}
		}
	}
}
MOTION
Frames: 5
Frame Time: 0.03333333
-1.834911 100.478111 -1.751759 0.000000 0.000000 0.000000 1.966246 6.398767 6.815096 -11.594928 5.054390 1.046904 16.417355 6.608258 0.871969 -5.409181 0.545834 -5.643113 0.530899 0.333194 -1.746271 0.000000 0.000000 0.000000 2.375588 6.383855 6.859851 -16.279324 -9.344890 -14.928966 21.837348 -1.449515 -2.619399 -8.767404 -7.245770 4.259195 -3.076841 -0.122484 -1.540813 0.000000 0.000000 0.000000 2.806626 5.974381 6.312342 8.127111 -1.090412 6.346348 2.261485 -0.140676 1.582581 0.820767 -0.549722 0.430740 0.000000 0.000000 0.000000 1.495256 -0.128058 1.245938 0.745183 0.607128 2.394373 -4.861584 -13.672545 -1.019235 0.000000 0.000000 0.000000 2.058097 -0.245613 1.372504 1.067133 -5.241679 -12.205005 0.307865 -0.093699 -1.477392 6.341730 -7.460888 -41.051407 0.060104 -68.713370 0.043529 0.000000 0.000000 0.000000 2.095449 -0.050696 1.262861 1.283165 16.166499 13.506659 -1.289893 1.114903 0.526565 -27.438212 14.204610 60.851945 -141.932369 88.216879 141.429708 0.000000 0.000000 0.000000 
-1.840068 100.479904 -1.633030 0.000000 0.000000 0.000000 1.950557 6.074499 6.854834 -11.405813 5.074530 1.085000 16.413564 6.752400 0.907285 -5.543465 0.470549 -5.728132 0.577723 0.333905 -1.738254 0.000000 0.000000 0.000000 2.361695 6.067970 6.900319 -15.970990 -8.745199 -14.830043 21.747153 -1.855965 -2.624595 -8.926375 -7.308824 4.262790 -3.000615 -0.132930 -1.576884 0.000000 0.000000 0.000000 2.784644 5.879558 6.347317 8.057199 -1.398233 6.383695 2.231258 -0.172694 1.577185 0.836245 -0.641901 0.391048 0.000000 0.000000 0.000000 1.496083 -0.159082 1.226134 0.741692 0.791202 2.243801 -5.582220 -13.397999 -1.259378 0.000000 0.000000 0.000000 2.025947 -0.270993 1.387586 1.007298 -5.357464 -12.343498 0.427345 0.079913 -1.554450 6.646273 -7.753404 -40.993323 0.104660 -68.890203 0.027133 0.000000 0.000000 0.000000 2.064801 -0.117376 1.262404 1.369625 16.649092 13.677061 -1.443575 1.296383 0.582271 -21.906401 16.792824 60.526063 -170.759305 83.931659 170.213205 0.000000 0.000000 0.000000 
-1.798106 100.493294 -1.539078 0.000000 0.000000 0.000000 1.894253 5.742116 6.877116 -11.201068 5.120491 1.119807 16.424189 6.938862 0.911104 -5.696214 0.368762 -5.797871 0.651958 0.331916 -1.715278 0.000000 0.000000 0.000000 2.303327 5.738916 6.921008 -15.614965 -8.152973 -14.752155 21.630545 -2.255902 -2.623786 -9.008893 -7.378184 4.296440 -2.904171 -0.147861 -1.605498 0.000000 0.000000 0.000000 2.752975 5.723067 6.362308 7.993926 -1.735726 6.391403 2.193936 -0.248565 1.567207 0.862075 -0.691795 0.349746 0.000000 0.000000 0.000000 1.484769 -0.226481 1.214839 0.754932 0.979109 2.065142 -6.288593 -13.041089 -1.559274 0.000000 0.000000 0.000000 1.992619 -0.330476 1.403687 0.948481 -5.498344 -12.411551 0.528721 0.289131 -1.563503 7.045300 -8.188449 -40.899723 0.148384 -68.978347 -0.004585 0.000000 0.000000 0.000000 2.030347 -0.217919 1.268073 1.482902 17.207005 13.668102 -1.557496 1.405337 0.705306 -16.780279 20.401620 59.611569 -174.844004 80.568597 174.268465 0.000000 0.000000 0.000000 
-1.711822 100.524330 -1.455608 0.000000 0.000000 0.000000 1.791175 5.389016 6.878678 -10.963411 5.179955 1.151058 16.435325 7.177858 0.889832 -5.875846 0.267761 -5.839171 0.761791 0.330080 -1.690323 0.000000 0.000000 0.000000 2.188953 5.382711 6.921003 -15.226051 -7.586469 -14.690081 21.500831 -2.621782 -2.618379 -8.994397 -7.445997 4.382681 -2.842948 -0.167778 -1.626065 0.000000 0.000000 0.000000 2.692314 5.469820 6.353162 7.932524 -2.076533 6.347142 2.151869 -0.350796 1.547139 0.876166 -0.712229 0.329914 0.000000 0.000000 0.000000 1.466097 -0.314094 1.201402 0.784907 1.153941 1.858621 -6.920255 -12.640957 -1.893229 0.000000 0.000000 0.000000 1.962066 -0.410818 1.415186 0.893127 -5.637002 -12.384792 0.603671 0.542801 -1.528076 7.480246 -8.745565 -40.796525 0.224579 -69.021029 -0.015169 0.000000 0.000000 0.000000 1.992749 -0.336703 1.270517 1.613585 17.897794 13.512394 -1.695934 1.526071 0.778932 -12.070921 24.965923 57.830993 -176.164526 78.487971 175.577553 0.000000 0.000000 0.000000 
-1.591591 100.570221 -1.379147 0.000000 0.000000 0.000000 1.639823 5.005521 6.852287 -10.673231 5.244007 1.189586 16.428939 7.481162 0.849535 -6.085115 0.193259 -5.834438 0.897757 0.329837 -1.672169 0.000000 0.000000 0.000000 2.022085 4.984670 6.893402 -14.814086 -7.049922 -14.625764 21.349921 -2.932970 -2.612560 -8.896497 -7.506643 4.511252 -2.825165 -0.194378 -1.635844 0.000000 0.000000 0.000000 2.578484 5.113297 6.316765 7.867508 -2.383956 6.236003 2.116031 -0.457880 1.508285 0.826749 -0.711912 0.337581 0.000000 0.000000 0.000000 1.442454 -0.394935 1.174913 0.844428 1.310294 1.630060 -7.440605 -12.278480 -2.231023 0.000000 0.000000 0.000000 1.941176 -0.491217 1.415756 0.838564 -5.764421 -12.251333 0.671534 0.791140 -1.454612 7.849957 -9.367814 -40.715635 0.321354 -69.075083 -0.004450 0.000000 0.000000 0.000000 1.935738 -0.451486 1.260943 1.750869 18.750802 13.224944 -1.725662 1.649605 0.713304 -7.718968 30.300338 54.927514 -176.302154 77.596113 175.705524 0.000000 0.000000 0.000000 
